<svg width="79" height="79" viewBox="0 0 79 79" fill="none" xmlns="http://www.w3.org/2000/svg">
<path fill-rule="evenodd" clip-rule="evenodd" d="M0 39.5C0 17.7188 17.7203 0 39.5 0C61.2797 0 79 17.7188 79 39.5C79 61.2812 61.2797 79 39.5 79C17.7203 79 0 61.2812 0 39.5ZM3.03846 39.5C3.03846 59.604 19.396 75.9615 39.5 75.9615C59.604 75.9615 75.9615 59.604 75.9615 39.5C75.9615 19.396 59.604 3.03846 39.5 3.03846C19.396 3.03846 3.03846 19.396 3.03846 39.5Z" fill="#00984A"/>
<path d="M58.1135 23.2983L34.7645 49.5658L20.6979 38.3128C20.0447 37.7887 19.086 37.8966 18.5634 38.5498C18.0393 39.2062 18.1456 40.1618 18.8004 40.6859L33.9927 52.8397C34.2723 53.0631 34.608 53.1724 34.9422 53.1724C35.3615 53.1724 35.7793 52.9993 36.0786 52.662L60.3863 25.3158C60.9439 24.6899 60.8877 23.7282 60.2602 23.1722C59.6313 22.6131 58.6726 22.6693 58.1135 23.2983Z" fill="#00984A"/>
</svg>
